<svg width="38" height="45" viewBox="0 0 38 45" fill="none" xmlns="http://www.w3.org/2000/svg">
<path d="M3.38833 8.46887L18.4981 1.55114C18.7592 1.4316 19.0571 1.42068 19.3262 1.52078C19.5954 1.62087 19.8138 1.82379 19.9333 2.08489L20.6898 3.73716L3.61104 11.5563L2.85458 9.90406C2.73504 9.64296 2.72413 9.34507 2.82422 9.07592C2.92432 8.80677 3.12723 8.58841 3.38833 8.46887Z" stroke="#3C8868" stroke-width="0.227121"/>
<path d="M3.09582 11.7923L21.205 3.50134C21.4328 3.39703 21.6928 3.38751 21.9276 3.47485C22.1625 3.5622 22.353 3.73926 22.4573 3.9671L23.2961 5.79913L3.46987 14.8762L2.63111 13.0442C2.52688 12.8165 2.51728 12.5568 2.60441 12.3221C2.69155 12.0873 2.86829 11.8968 3.09582 11.7923Z" stroke="#3C8868" stroke-width="0.227121"/>
<path d="M3.56241 14.8325L23.2016 5.84107C23.4995 5.70466 23.8395 5.69219 24.1466 5.80642C24.4538 5.92065 24.703 6.15222 24.8394 6.45018L25.5571 8.0178L3.67101 18.0379L2.95331 16.4703C2.81689 16.1724 2.80443 15.8324 2.91866 15.5253C3.03289 15.2181 3.26445 14.9689 3.56241 14.8325Z" stroke="#3C8868" stroke-width="0.227121"/>
<path fill-rule="evenodd" clip-rule="evenodd" d="M32.591 37.411L21.1547 42.6469C20.9214 42.7536 20.6573 42.772 20.4115 42.6984C20.1658 42.6249 19.9551 42.4645 19.8188 42.2472L4.52948 17.6436L24.5271 8.48805L33.1613 36.1386C33.2368 36.3837 33.2205 36.648 33.1156 36.8821C33.0107 37.1162 32.8242 37.3042 32.591 37.411Z" stroke="#3C8868" stroke-width="0.227121"/>
</svg>
