<svg xmlns="http://www.w3.org/2000/svg" width="17" height="20" fill="none" viewBox="0 0 17 20"><path fill="#EE9322" d="M11.767 2.10445H4.52575V2.63056C4.52575 2.92112 4.32313 3.15667 4.07318 3.15667C3.82323 3.15667 3.6206 2.92112 3.6206 2.63056V2.10445H2.26288C1.51302 2.10445 0.90515 2.81109 0.90515 3.68279V6.31335H15.3876V3.68279C15.3876 2.81109 14.7797 2.10445 14.0298 2.10445H12.6721V2.63056C12.6721 2.92112 12.4695 3.15667 12.2195 3.15667C11.9696 3.15667 11.767 2.92112 11.767 2.63056V2.10445ZM12.6721 1.05222H14.0298C15.2796 1.05222 16.2927 2.22997 16.2927 3.68279V17.3694C16.2927 18.8223 15.2796 20 14.0298 20H2.26288C1.01312 20 0 18.8223 0 17.3694V3.68279C0 2.22997 1.01312 1.05222 2.26288 1.05222H3.6206V0.526112C3.6206 0.235548 3.82323 0 4.07318 0C4.32313 0 4.52575 0.235548 4.52575 0.526112V1.05222H11.767V0.526112C11.767 0.235548 11.9696 0 12.2195 0C12.4695 0 12.6721 0.235548 12.6721 0.526112V1.05222ZM15.3876 7.36557H0.90515V17.3694C0.90515 18.2411 1.51302 18.9478 2.26288 18.9478H14.0298C14.7797 18.9478 15.3876 18.2411 15.3876 17.3694V7.36557Z"/></svg>