<svg xmlns="http://www.w3.org/2000/svg" width="59" height="61" fill="none" viewBox="0 0 59 61"><path fill-rule="evenodd" stroke="#3C8868" stroke-width=".75" d="M14.3872 20.7689C15.2921 17.4911 17.8998 14.5044 21.2616 13.9896C24.6234 13.4748 28.367 16.1863 28.2414 19.5762C27.4917 18.8119 28.1301 17.556 28.7972 16.7044C30.6549 14.3291 32.6268 11.9197 35.3018 10.5318C37.9769 9.14388 41.5516 9.05056 43.765 11.0925C44.2206 11.4918 44.5869 11.9826 44.8402 12.533C45.0934 13.0833 45.2278 13.6809 45.2346 14.2867C45.2138 14.9701 44.9929 15.6381 45.0457 16.3321C45.0862 17.1321 45.4868 17.868 45.6332 18.6562C46.0465 20.8842 44.4131 22.9611 42.6881 24.4287C40.9631 25.8964 38.912 27.2527 38.1033 29.3668C40.1917 29.5321 42.3047 30.0889 43.9809 31.3484C45.657 32.6078 46.832 34.6442 46.6937 36.735C46.5396 38.9723 45.0034 40.8373 43.5367 42.531C42.9043 43.2608 42.2425 44.0152 41.3566 44.3923C38.8376 45.4707 36.27 43.1356 34.428 41.1061C30.834 37.1467 26.8738 33.5357 22.6004 30.3214C20.424 28.6857 18.0987 27.3024 15.8723 25.7473C13.8407 24.3288 13.6837 23.3246 14.3872 20.7689Z" clip-rule="evenodd"/><path stroke="#3C8868" stroke-width=".75" d="M17.0923 26.5452L13.9739 40.5262C13.661 41.9365 13.3287 43.3891 12.4625 44.5497C12.1028 45.0293 11.6359 45.5343 11.7205 46.1282C11.8389 46.5495 12.0984 46.9173 12.4554 47.1703C14.5705 49.0273 16.7384 50.8204 18.9591 52.5495C24.5996 49.484 30.0499 46.0805 35.28 42.3578"/></svg>